<?xml version="1.0" encoding="utf-8"?>
<!-- Generator: Adobe Illustrator 23.0.5, SVG Export Plug-In . SVG Version: 6.00 Build 0)  -->
<svg version="1.1" id="Layer_1" xmlns="http://www.w3.org/2000/svg" xmlns:xlink="http://www.w3.org/1999/xlink" x="0px" y="0px"
	 viewBox="0 0 600 500" style="enable-background:new 0 0 600 500;" xml:space="preserve">
<style type="text/css">
	.st0{fill:#E6E6E6;}
	.st1{fill:#1D1D3D;}
	.st2{font-family:'QuicksandDash-Regular';}
	.st3{font-size:12px;}
	.st4{fill:none;stroke:url(#SVGID_1_);stroke-width:2;stroke-miterlimit:10;}
	.st5{fill:none;stroke:url(#SVGID_2_);stroke-width:2;stroke-miterlimit:10;}
	.st6{fill:none;stroke:url(#SVGID_3_);stroke-width:2;stroke-miterlimit:10;}
	.st7{fill:none;stroke:url(#SVGID_4_);stroke-width:2;stroke-miterlimit:10;}
	.st8{fill:none;stroke:url(#SVGID_5_);stroke-width:2;stroke-miterlimit:10;}
	.st9{fill:none;stroke:url(#SVGID_6_);stroke-width:2;stroke-miterlimit:10;}
</style>
<g>
	<rect x="106" y="92" class="st0" width="130" height="6"/>
</g>
<g>
	<rect x="106" y="92" class="st1" width="113" height="6"/>
</g>
<text transform="matrix(1 0 0 1 106.4399 85.04)" class="st2 st3">HTML and CSS</text>
<linearGradient id="SVGID_1_" gradientUnits="userSpaceOnUse" x1="95.5" y1="86" x2="247.5" y2="86">
	<stop  offset="0" style="stop-color:#22B573"/>
	<stop  offset="1" style="stop-color:#2E3192"/>
</linearGradient>
<rect x="96.5" y="67.5" class="st4" width="150" height="37"/>
<g>
	<rect x="106" y="150" class="st0" width="130" height="6"/>
</g>
<g>
	<rect x="106" y="150" class="st1" width="99" height="6"/>
</g>
<text transform="matrix(1 0 0 1 106.4399 143.04)" class="st2 st3">Javascript</text>
<linearGradient id="SVGID_2_" gradientUnits="userSpaceOnUse" x1="95.5" y1="144" x2="247.5" y2="144">
	<stop  offset="0" style="stop-color:#22B573"/>
	<stop  offset="1" style="stop-color:#2E3192"/>
</linearGradient>
<rect x="96.5" y="125.5" class="st5" width="150" height="37"/>
<g>
	<rect x="106" y="208" class="st0" width="130" height="6"/>
</g>
<g>
	<rect x="106" y="208" class="st1" width="107" height="6"/>
</g>
<text transform="matrix(1 0 0 1 106.4399 201.04)" class="st2 st3">PHP</text>
<linearGradient id="SVGID_3_" gradientUnits="userSpaceOnUse" x1="95.5" y1="202" x2="247.5" y2="202">
	<stop  offset="0" style="stop-color:#22B573"/>
	<stop  offset="1" style="stop-color:#2E3192"/>
</linearGradient>
<rect x="96.5" y="183.5" class="st6" width="150" height="37"/>
<g>
	<rect x="106" y="268" class="st0" width="130" height="6"/>
</g>
<g>
	<rect x="106" y="268" class="st1" width="115" height="6"/>
</g>
<text transform="matrix(1 0 0 1 106.4399 261.04)" class="st2 st3">Python</text>
<linearGradient id="SVGID_4_" gradientUnits="userSpaceOnUse" x1="95.5" y1="262" x2="247.5" y2="262">
	<stop  offset="0" style="stop-color:#22B573"/>
	<stop  offset="1" style="stop-color:#2E3192"/>
</linearGradient>
<rect x="96.5" y="243.5" class="st7" width="150" height="37"/>
<g>
	<rect x="295" y="90" class="st0" width="130" height="6"/>
</g>
<g>
	<rect x="295" y="90" class="st1" width="109" height="6"/>
</g>
<text transform="matrix(1 0 0 1 295.4399 83.04)" class="st2 st3">Photoshop</text>
<linearGradient id="SVGID_5_" gradientUnits="userSpaceOnUse" x1="284.5" y1="84" x2="436.5" y2="84">
	<stop  offset="0" style="stop-color:#22B573"/>
	<stop  offset="1" style="stop-color:#2E3192"/>
</linearGradient>
<rect x="285.5" y="65.5" class="st8" width="150" height="37"/>
<g>
	<rect x="295" y="150" class="st0" width="130" height="6"/>
</g>
<g>
	<rect x="295" y="150" class="st1" width="99" height="6"/>
</g>
<text transform="matrix(1 0 0 1 295.4399 143.04)" class="st2 st3">ILLustrator</text>
<linearGradient id="SVGID_6_" gradientUnits="userSpaceOnUse" x1="284.5" y1="144" x2="436.5" y2="144">
	<stop  offset="0" style="stop-color:#22B573"/>
	<stop  offset="1" style="stop-color:#2E3192"/>
</linearGradient>
<rect x="285.5" y="125.5" class="st9" width="150" height="37"/>
</svg>
